<mxfile host="app.diagrams.net" agent="Mozilla/5.0 (Macintosh; Intel Mac OS X 10.15; rv:130.0) Gecko/20100101 Firefox/130.0" version="24.7.14">
  <diagram name="BasicRoute" id="oriy2QHzV4mwgmDZdDHf">
    <mxGraphModel dx="1671" dy="1840" grid="0" gridSize="10" guides="1" tooltips="1" connect="1" arrows="1" fold="1" page="0" pageScale="1" pageWidth="850" pageHeight="1100" math="0" shadow="0">
      <root>
        <mxCell id="0" />
        <mxCell id="1" parent="0" />
        <mxCell id="Q9f4cYTGOc799VG7EVIt-62" value="" style="edgeStyle=none;curved=1;rounded=0;orthogonalLoop=1;jettySize=auto;html=1;fontSize=12;startSize=8;endSize=8;" edge="1" parent="1" source="Q9f4cYTGOc799VG7EVIt-3" target="Q9f4cYTGOc799VG7EVIt-59">
          <mxGeometry relative="1" as="geometry" />
        </mxCell>
        <mxCell id="Q9f4cYTGOc799VG7EVIt-3" value="&lt;div&gt;User&lt;/div&gt;" style="rounded=0;whiteSpace=wrap;html=1;fontSize=20;" vertex="1" parent="1">
          <mxGeometry x="218" y="-491" width="120" height="38" as="geometry" />
        </mxCell>
        <mxCell id="Q9f4cYTGOc799VG7EVIt-64" value="" style="edgeStyle=none;curved=1;rounded=0;orthogonalLoop=1;jettySize=auto;html=1;fontSize=12;startSize=8;endSize=8;entryX=0.5;entryY=0;entryDx=0;entryDy=0;" edge="1" parent="1" source="Q9f4cYTGOc799VG7EVIt-6" target="Q9f4cYTGOc799VG7EVIt-53">
          <mxGeometry relative="1" as="geometry" />
        </mxCell>
        <mxCell id="Q9f4cYTGOc799VG7EVIt-6" value="async fetch /api/auth/createUser" style="rounded=1;whiteSpace=wrap;html=1;fontSize=18;" vertex="1" parent="1">
          <mxGeometry x="105" y="-324" width="346" height="60" as="geometry" />
        </mxCell>
        <mxCell id="Q9f4cYTGOc799VG7EVIt-66" value="" style="edgeStyle=none;curved=1;rounded=0;orthogonalLoop=1;jettySize=auto;html=1;fontSize=12;startSize=8;endSize=8;" edge="1" parent="1" source="Q9f4cYTGOc799VG7EVIt-53" target="Q9f4cYTGOc799VG7EVIt-65">
          <mxGeometry relative="1" as="geometry" />
        </mxCell>
        <mxCell id="Q9f4cYTGOc799VG7EVIt-53" value="&lt;font style=&quot;font-size: 21px;&quot;&gt;POST&lt;/font&gt;" style="swimlane;fontStyle=0;childLayout=stackLayout;horizontal=1;startSize=30;horizontalStack=0;resizeParent=1;resizeParentMax=0;resizeLast=0;collapsible=1;marginBottom=0;whiteSpace=wrap;html=1;fillColor=none;fixedWidth=0;resizeWidth=1;resizeHeight=1;" vertex="1" parent="1">
          <mxGeometry x="193.75" y="-238" width="168.5" height="191" as="geometry" />
        </mxCell>
        <mxCell id="Q9f4cYTGOc799VG7EVIt-54" value="&lt;div style=&quot;font-size: 18px;&quot;&gt;&lt;font style=&quot;font-size: 18px;&quot;&gt;Email&lt;/font&gt;&lt;/div&gt;" style="text;strokeColor=none;fillColor=none;align=left;verticalAlign=middle;spacingLeft=4;spacingRight=4;overflow=hidden;points=[[0,0.5],[1,0.5]];portConstraint=eastwest;rotatable=0;whiteSpace=wrap;html=1;fontSize=18;" vertex="1" parent="Q9f4cYTGOc799VG7EVIt-53">
          <mxGeometry y="30" width="168.5" height="42" as="geometry" />
        </mxCell>
        <mxCell id="Q9f4cYTGOc799VG7EVIt-55" value="&lt;font style=&quot;font-size: 18px;&quot;&gt;Username&lt;/font&gt;" style="text;strokeColor=none;fillColor=none;align=left;verticalAlign=middle;spacingLeft=4;spacingRight=4;overflow=hidden;points=[[0,0.5],[1,0.5]];portConstraint=eastwest;rotatable=0;whiteSpace=wrap;html=1;fontSize=18;" vertex="1" parent="Q9f4cYTGOc799VG7EVIt-53">
          <mxGeometry y="72" width="168.5" height="39" as="geometry" />
        </mxCell>
        <mxCell id="Q9f4cYTGOc799VG7EVIt-56" value="&lt;font style=&quot;font-size: 18px;&quot;&gt;Password&lt;/font&gt;" style="text;strokeColor=none;fillColor=none;align=left;verticalAlign=middle;spacingLeft=4;spacingRight=4;overflow=hidden;points=[[0,0.5],[1,0.5]];portConstraint=eastwest;rotatable=0;whiteSpace=wrap;html=1;fontSize=18;" vertex="1" parent="Q9f4cYTGOc799VG7EVIt-53">
          <mxGeometry y="111" width="168.5" height="40" as="geometry" />
        </mxCell>
        <mxCell id="Q9f4cYTGOc799VG7EVIt-57" value="Confirm Password" style="text;strokeColor=none;fillColor=none;align=left;verticalAlign=middle;spacingLeft=4;spacingRight=4;overflow=hidden;points=[[0,0.5],[1,0.5]];portConstraint=eastwest;rotatable=0;whiteSpace=wrap;html=1;fontSize=18;" vertex="1" parent="Q9f4cYTGOc799VG7EVIt-53">
          <mxGeometry y="151" width="168.5" height="40" as="geometry" />
        </mxCell>
        <mxCell id="Q9f4cYTGOc799VG7EVIt-63" value="" style="edgeStyle=none;curved=1;rounded=0;orthogonalLoop=1;jettySize=auto;html=1;fontSize=12;startSize=8;endSize=8;entryX=0.5;entryY=0;entryDx=0;entryDy=0;" edge="1" parent="1" source="Q9f4cYTGOc799VG7EVIt-59" target="Q9f4cYTGOc799VG7EVIt-6">
          <mxGeometry relative="1" as="geometry" />
        </mxCell>
        <mxCell id="Q9f4cYTGOc799VG7EVIt-59" value="Zod Form Client-Side Validation" style="rounded=0;whiteSpace=wrap;html=1;fontSize=18;" vertex="1" parent="1">
          <mxGeometry x="137.5" y="-415" width="282" height="60" as="geometry" />
        </mxCell>
        <mxCell id="Q9f4cYTGOc799VG7EVIt-68" value="" style="edgeStyle=none;curved=1;rounded=0;orthogonalLoop=1;jettySize=auto;html=1;fontSize=12;startSize=8;endSize=8;" edge="1" parent="1" source="Q9f4cYTGOc799VG7EVIt-65" target="Q9f4cYTGOc799VG7EVIt-67">
          <mxGeometry relative="1" as="geometry" />
        </mxCell>
        <mxCell id="Q9f4cYTGOc799VG7EVIt-65" value="Zod Server-Side Validation" style="rounded=1;whiteSpace=wrap;html=1;fontSize=18;" vertex="1" parent="1">
          <mxGeometry x="137.5" y="-21" width="281" height="60" as="geometry" />
        </mxCell>
        <mxCell id="Q9f4cYTGOc799VG7EVIt-95" value="" style="edgeStyle=none;curved=1;rounded=0;orthogonalLoop=1;jettySize=auto;html=1;fontSize=12;startSize=8;endSize=8;" edge="1" parent="1" source="Q9f4cYTGOc799VG7EVIt-67" target="Q9f4cYTGOc799VG7EVIt-94">
          <mxGeometry relative="1" as="geometry" />
        </mxCell>
        <mxCell id="Q9f4cYTGOc799VG7EVIt-67" value="Normalize Email and Username to Lowercase" style="rounded=0;whiteSpace=wrap;html=1;fontSize=18;" vertex="1" parent="1">
          <mxGeometry x="84.5" y="100" width="387" height="60" as="geometry" />
        </mxCell>
        <mxCell id="Q9f4cYTGOc799VG7EVIt-90" style="edgeStyle=none;curved=1;rounded=0;orthogonalLoop=1;jettySize=auto;html=1;exitX=1;exitY=0.5;exitDx=0;exitDy=0;entryX=0;entryY=0.5;entryDx=0;entryDy=0;fontSize=12;startSize=8;endSize=8;" edge="1" parent="1" source="Q9f4cYTGOc799VG7EVIt-70" target="Q9f4cYTGOc799VG7EVIt-6">
          <mxGeometry relative="1" as="geometry" />
        </mxCell>
        <mxCell id="Q9f4cYTGOc799VG7EVIt-70" value="&lt;br&gt;&lt;h1 style=&quot;margin-top: 0px;&quot;&gt;Client Side Note&lt;br&gt;&lt;/h1&gt;&lt;p&gt;&lt;font style=&quot;font-size: 15px;&quot;&gt;At this point, we have validated all our inputs. They should be in the format we expect them to be in.&lt;/font&gt;&lt;/p&gt;" style="text;html=1;whiteSpace=wrap;overflow=hidden;rounded=0;" vertex="1" parent="1">
          <mxGeometry x="-139" y="-367.5" width="203" height="147" as="geometry" />
        </mxCell>
        <mxCell id="Q9f4cYTGOc799VG7EVIt-102" style="edgeStyle=none;curved=1;rounded=0;orthogonalLoop=1;jettySize=auto;html=1;entryX=1;entryY=0.5;entryDx=0;entryDy=0;fontSize=12;startSize=8;endSize=8;startArrow=classic;startFill=1;" edge="1" parent="1" source="Q9f4cYTGOc799VG7EVIt-77" target="Q9f4cYTGOc799VG7EVIt-59">
          <mxGeometry relative="1" as="geometry" />
        </mxCell>
        <mxCell id="Q9f4cYTGOc799VG7EVIt-103" style="edgeStyle=orthogonalEdgeStyle;rounded=0;orthogonalLoop=1;jettySize=auto;html=1;entryX=1;entryY=0.5;entryDx=0;entryDy=0;fontSize=12;startSize=8;endSize=8;startArrow=open;startFill=0;" edge="1" parent="1" source="Q9f4cYTGOc799VG7EVIt-77" target="Q9f4cYTGOc799VG7EVIt-65">
          <mxGeometry relative="1" as="geometry">
            <Array as="points">
              <mxPoint x="627" y="9" />
            </Array>
          </mxGeometry>
        </mxCell>
        <mxCell id="Q9f4cYTGOc799VG7EVIt-77" value="Validation Format" style="swimlane;fontStyle=0;childLayout=stackLayout;horizontal=1;startSize=30;horizontalStack=0;resizeParent=1;resizeParentMax=0;resizeLast=0;collapsible=1;marginBottom=0;whiteSpace=wrap;html=1;fillColor=none;fixedWidth=0;resizeWidth=1;resizeHeight=1;" vertex="1" parent="1">
          <mxGeometry x="489" y="-474.5" width="268" height="179" as="geometry" />
        </mxCell>
        <mxCell id="Q9f4cYTGOc799VG7EVIt-78" value="&lt;div&gt;Email : Email Format, 5-50 Characters&lt;br&gt;&lt;/div&gt;" style="text;strokeColor=none;fillColor=none;align=left;verticalAlign=middle;spacingLeft=4;spacingRight=4;overflow=hidden;points=[[0,0.5],[1,0.5]];portConstraint=eastwest;rotatable=0;whiteSpace=wrap;html=1;" vertex="1" parent="Q9f4cYTGOc799VG7EVIt-77">
          <mxGeometry y="30" width="268" height="30" as="geometry" />
        </mxCell>
        <mxCell id="Q9f4cYTGOc799VG7EVIt-79" value="Username : 8-50 Characters" style="text;strokeColor=none;fillColor=none;align=left;verticalAlign=middle;spacingLeft=4;spacingRight=4;overflow=hidden;points=[[0,0.5],[1,0.5]];portConstraint=eastwest;rotatable=0;whiteSpace=wrap;html=1;" vertex="1" parent="Q9f4cYTGOc799VG7EVIt-77">
          <mxGeometry y="60" width="268" height="36" as="geometry" />
        </mxCell>
        <mxCell id="Q9f4cYTGOc799VG7EVIt-80" value="Password: 8-50 Characters, One uppercase, One lowercase, One number, One special Character" style="text;strokeColor=none;fillColor=none;align=left;verticalAlign=middle;spacingLeft=4;spacingRight=4;overflow=hidden;points=[[0,0.5],[1,0.5]];portConstraint=eastwest;rotatable=0;whiteSpace=wrap;html=1;" vertex="1" parent="Q9f4cYTGOc799VG7EVIt-77">
          <mxGeometry y="96" width="268" height="30" as="geometry" />
        </mxCell>
        <mxCell id="Q9f4cYTGOc799VG7EVIt-81" value="Confirm Password: Same as password" style="text;strokeColor=none;fillColor=none;align=left;verticalAlign=middle;spacingLeft=4;spacingRight=4;overflow=hidden;points=[[0,0.5],[1,0.5]];portConstraint=eastwest;rotatable=0;whiteSpace=wrap;html=1;" vertex="1" parent="Q9f4cYTGOc799VG7EVIt-77">
          <mxGeometry y="126" width="268" height="53" as="geometry" />
        </mxCell>
        <mxCell id="Q9f4cYTGOc799VG7EVIt-92" style="edgeStyle=none;curved=1;rounded=0;orthogonalLoop=1;jettySize=auto;html=1;entryX=0;entryY=0.5;entryDx=0;entryDy=0;fontSize=12;startSize=8;endSize=8;" edge="1" parent="1" source="Q9f4cYTGOc799VG7EVIt-91" target="Q9f4cYTGOc799VG7EVIt-67">
          <mxGeometry relative="1" as="geometry" />
        </mxCell>
        <mxCell id="Q9f4cYTGOc799VG7EVIt-91" value="&lt;br&gt;&lt;h1 style=&quot;margin-top: 0px;&quot;&gt;Server Side Note&lt;br&gt;&lt;/h1&gt;&lt;p&gt;&lt;font style=&quot;font-size: 15px;&quot;&gt;At this point, for security and consistency purposes, we want to check that the data is how we expect it to be on the server side as well. People can submit requests technically without going through our client side validation form.&lt;br&gt;&lt;/font&gt;&lt;/p&gt;" style="text;html=1;whiteSpace=wrap;overflow=hidden;rounded=0;" vertex="1" parent="1">
          <mxGeometry x="-161" y="11.75" width="203" height="236.5" as="geometry" />
        </mxCell>
        <mxCell id="Q9f4cYTGOc799VG7EVIt-106" style="rounded=0;orthogonalLoop=1;jettySize=auto;html=1;entryX=0.5;entryY=0;entryDx=0;entryDy=0;fontSize=12;startSize=8;endSize=8;edgeStyle=orthogonalEdgeStyle;" edge="1" parent="1" source="Q9f4cYTGOc799VG7EVIt-94" target="Q9f4cYTGOc799VG7EVIt-105">
          <mxGeometry relative="1" as="geometry" />
        </mxCell>
        <mxCell id="Q9f4cYTGOc799VG7EVIt-114" style="edgeStyle=orthogonalEdgeStyle;rounded=0;orthogonalLoop=1;jettySize=auto;html=1;entryX=0.5;entryY=0;entryDx=0;entryDy=0;fontSize=12;startSize=8;endSize=8;" edge="1" parent="1" source="Q9f4cYTGOc799VG7EVIt-94" target="Q9f4cYTGOc799VG7EVIt-113">
          <mxGeometry relative="1" as="geometry" />
        </mxCell>
        <mxCell id="Q9f4cYTGOc799VG7EVIt-94" value="Query PrismaDB User Table with Normalized Email" style="rounded=0;whiteSpace=wrap;html=1;fontSize=18;" vertex="1" parent="1">
          <mxGeometry x="55.75" y="226" width="444.5" height="60" as="geometry" />
        </mxCell>
        <mxCell id="Q9f4cYTGOc799VG7EVIt-141" style="edgeStyle=none;curved=1;rounded=0;orthogonalLoop=1;jettySize=auto;html=1;entryX=0.5;entryY=0;entryDx=0;entryDy=0;fontSize=12;startSize=8;endSize=8;" edge="1" parent="1" source="Q9f4cYTGOc799VG7EVIt-142" target="Q9f4cYTGOc799VG7EVIt-137">
          <mxGeometry relative="1" as="geometry" />
        </mxCell>
        <mxCell id="Q9f4cYTGOc799VG7EVIt-105" value="If User D.N.E: Query Is Null, Proceed with execution" style="rounded=0;whiteSpace=wrap;html=1;fontSize=18;" vertex="1" parent="1">
          <mxGeometry x="-56.5" y="352" width="181.5" height="130" as="geometry" />
        </mxCell>
        <mxCell id="Q9f4cYTGOc799VG7EVIt-110" value="&lt;div&gt;Return Error:&lt;/div&gt;&lt;div&gt;User already Exists&lt;br&gt;&lt;/div&gt;" style="rounded=0;whiteSpace=wrap;html=1;fontSize=18;" vertex="1" parent="1">
          <mxGeometry x="439.75" y="465" width="184" height="60" as="geometry" />
        </mxCell>
        <mxCell id="Q9f4cYTGOc799VG7EVIt-130" style="edgeStyle=none;curved=1;rounded=0;orthogonalLoop=1;jettySize=auto;html=1;entryX=0.5;entryY=0;entryDx=0;entryDy=0;fontSize=12;startSize=8;endSize=8;" edge="1" parent="1" source="Q9f4cYTGOc799VG7EVIt-113" target="Q9f4cYTGOc799VG7EVIt-110">
          <mxGeometry relative="1" as="geometry" />
        </mxCell>
        <mxCell id="Q9f4cYTGOc799VG7EVIt-113" value="If User Exists..." style="rounded=0;whiteSpace=wrap;html=1;fontSize=18;" vertex="1" parent="1">
          <mxGeometry x="451" y="352" width="161.5" height="60" as="geometry" />
        </mxCell>
        <mxCell id="Q9f4cYTGOc799VG7EVIt-123" value="&lt;br&gt;&lt;h1 style=&quot;margin-top: 0px;&quot;&gt;Wrap Server Route in Try Catch&lt;br&gt;&lt;/h1&gt;&lt;p&gt;&lt;font style=&quot;font-size: 15px;&quot;&gt;To prevent memory leakage and direct general errors to specific return messages&lt;br&gt;&lt;/font&gt;&lt;/p&gt;" style="text;html=1;whiteSpace=wrap;overflow=hidden;rounded=0;" vertex="1" parent="1">
          <mxGeometry x="-168.5" y="-181" width="218" height="147" as="geometry" />
        </mxCell>
        <mxCell id="Q9f4cYTGOc799VG7EVIt-136" style="rounded=0;orthogonalLoop=1;jettySize=auto;html=1;entryX=1;entryY=0.5;entryDx=0;entryDy=0;fontSize=12;startSize=8;endSize=8;startArrow=classic;startFill=1;" edge="1" parent="1" source="Q9f4cYTGOc799VG7EVIt-135" target="Q9f4cYTGOc799VG7EVIt-94">
          <mxGeometry relative="1" as="geometry" />
        </mxCell>
        <mxCell id="Q9f4cYTGOc799VG7EVIt-135" value="Implies Username is unique in the entry if found" style="rounded=0;whiteSpace=wrap;html=1;fontSize=18;" vertex="1" parent="1">
          <mxGeometry x="661" y="214" width="197" height="84" as="geometry" />
        </mxCell>
        <mxCell id="Q9f4cYTGOc799VG7EVIt-147" style="edgeStyle=orthogonalEdgeStyle;rounded=0;orthogonalLoop=1;jettySize=auto;html=1;entryX=0.5;entryY=0;entryDx=0;entryDy=0;fontSize=12;startSize=8;endSize=8;" edge="1" parent="1" source="Q9f4cYTGOc799VG7EVIt-137" target="Q9f4cYTGOc799VG7EVIt-146">
          <mxGeometry relative="1" as="geometry" />
        </mxCell>
        <mxCell id="Q9f4cYTGOc799VG7EVIt-137" value="Create User Record" style="swimlane;fontStyle=0;childLayout=stackLayout;horizontal=1;startSize=30;horizontalStack=0;resizeParent=1;resizeParentMax=0;resizeLast=0;collapsible=1;marginBottom=0;whiteSpace=wrap;html=1;fontSize=20;" vertex="1" parent="1">
          <mxGeometry x="-77.75" y="654" width="224" height="120" as="geometry" />
        </mxCell>
        <mxCell id="Q9f4cYTGOc799VG7EVIt-138" value="hashed password" style="text;strokeColor=none;fillColor=none;align=left;verticalAlign=middle;spacingLeft=4;spacingRight=4;overflow=hidden;points=[[0,0.5],[1,0.5]];portConstraint=eastwest;rotatable=0;whiteSpace=wrap;html=1;fontSize=18;" vertex="1" parent="Q9f4cYTGOc799VG7EVIt-137">
          <mxGeometry y="30" width="224" height="30" as="geometry" />
        </mxCell>
        <mxCell id="Q9f4cYTGOc799VG7EVIt-139" value="email address" style="text;strokeColor=none;fillColor=none;align=left;verticalAlign=middle;spacingLeft=4;spacingRight=4;overflow=hidden;points=[[0,0.5],[1,0.5]];portConstraint=eastwest;rotatable=0;whiteSpace=wrap;html=1;fontSize=18;" vertex="1" parent="Q9f4cYTGOc799VG7EVIt-137">
          <mxGeometry y="60" width="224" height="30" as="geometry" />
        </mxCell>
        <mxCell id="Q9f4cYTGOc799VG7EVIt-140" value="username" style="text;strokeColor=none;fillColor=none;align=left;verticalAlign=middle;spacingLeft=4;spacingRight=4;overflow=hidden;points=[[0,0.5],[1,0.5]];portConstraint=eastwest;rotatable=0;whiteSpace=wrap;html=1;fontSize=18;" vertex="1" parent="Q9f4cYTGOc799VG7EVIt-137">
          <mxGeometry y="90" width="224" height="30" as="geometry" />
        </mxCell>
        <mxCell id="Q9f4cYTGOc799VG7EVIt-143" value="" style="edgeStyle=none;curved=1;rounded=0;orthogonalLoop=1;jettySize=auto;html=1;entryX=0.5;entryY=0;entryDx=0;entryDy=0;fontSize=12;startSize=8;endSize=8;" edge="1" parent="1" source="Q9f4cYTGOc799VG7EVIt-105" target="Q9f4cYTGOc799VG7EVIt-142">
          <mxGeometry relative="1" as="geometry">
            <mxPoint x="34" y="482" as="sourcePoint" />
            <mxPoint x="34" y="588" as="targetPoint" />
          </mxGeometry>
        </mxCell>
        <mxCell id="Q9f4cYTGOc799VG7EVIt-142" value="Hash Password" style="rounded=0;whiteSpace=wrap;html=1;fontSize=18;" vertex="1" parent="1">
          <mxGeometry x="-46.5" y="538" width="161.5" height="60" as="geometry" />
        </mxCell>
        <mxCell id="Q9f4cYTGOc799VG7EVIt-146" value="&lt;div&gt;Async create Cookie Verify Email Session function&lt;/div&gt;&lt;div&gt;&lt;br&gt;&lt;/div&gt;&lt;div&gt;&lt;br&gt;&lt;/div&gt;" style="rounded=0;whiteSpace=wrap;html=1;fontSize=25;align=center;horizontal=1;verticalAlign=top;spacingTop=27;" vertex="1" parent="1">
          <mxGeometry x="-76.75" y="835" width="717.75" height="698" as="geometry" />
        </mxCell>
        <mxCell id="Q9f4cYTGOc799VG7EVIt-149" value="Wrapped In Try/Catch" style="text;html=1;align=center;verticalAlign=middle;whiteSpace=wrap;rounded=0;fontSize=19;" vertex="1" parent="1">
          <mxGeometry x="-63.25" y="914" width="209.5" height="33" as="geometry" />
        </mxCell>
        <mxCell id="Q9f4cYTGOc799VG7EVIt-150" value="" style="rounded=1;whiteSpace=wrap;html=1;" vertex="1" parent="1">
          <mxGeometry x="197.38" y="950" width="169.5" height="96" as="geometry" />
        </mxCell>
      </root>
    </mxGraphModel>
  </diagram>
</mxfile>
